<svg version="1.2" xmlns="http://www.w3.org/2000/svg" viewBox="0 0 595 842" width="283" height="400">
	<title>prince-sultan-bin-salman-elementary-school-leading-ai</title>
	<defs>
		<linearGradient id="g1" x1="351.2" y1="218.4" x2="355.6" y2="565.8" gradientUnits="userSpaceOnUse">
			<stop offset="0" stop-color="#ffffff"/>
			<stop offset=".3" stop-color="#fcda11"/>
			<stop offset=".6" stop-color="#f47f20"/>
			<stop offset="1" stop-color="#a61d21"/>
		</linearGradient>
		<linearGradient id="g2" x1="351.2" y1="315.4" x2="349.8" y2="591.6" gradientUnits="userSpaceOnUse">
			<stop offset="0" stop-color="#ffffff"/>
			<stop offset=".3" stop-color="#fcda11"/>
			<stop offset=".6" stop-color="#f47f20"/>
			<stop offset="1" stop-color="#a61d21"/>
		</linearGradient>
		<linearGradient id="g3" x1="316.5" y1="372.2" x2="317.9" y2="554.3" gradientUnits="userSpaceOnUse">
			<stop offset="0" stop-color="#ffffff"/>
			<stop offset=".3" stop-color="#fcda11"/>
			<stop offset=".6" stop-color="#f47f20"/>
			<stop offset="1" stop-color="#a61d21"/>
		</linearGradient>
		<linearGradient id="g4" x1="296.3" y1="277.9" x2="305" y2="768.9" gradientUnits="userSpaceOnUse">
			<stop offset="0" stop-color="#ffffff"/>
			<stop offset=".3" stop-color="#fcda11"/>
			<stop offset=".6" stop-color="#f47f20"/>
			<stop offset="1" stop-color="#a61d21"/>
		</linearGradient>
		<linearGradient id="g5" x1="419" y1="152.9" x2="419" y2="690" gradientUnits="userSpaceOnUse">
			<stop offset="0" stop-color="#ffffff"/>
			<stop offset=".3" stop-color="#fcda11"/>
			<stop offset=".6" stop-color="#f47f20"/>
			<stop offset="1" stop-color="#a61d21"/>
		</linearGradient>
		<linearGradient id="g6" x1="412.5" y1="152.9" x2="412.5" y2="690" gradientUnits="userSpaceOnUse">
			<stop offset="0" stop-color="#ffffff"/>
			<stop offset=".3" stop-color="#fcda11"/>
			<stop offset=".6" stop-color="#f47f20"/>
			<stop offset="1" stop-color="#a61d21"/>
		</linearGradient>
		<linearGradient id="g7" x1="412.6" y1="152.9" x2="412.6" y2="690" gradientUnits="userSpaceOnUse">
			<stop offset="0" stop-color="#ffffff"/>
			<stop offset=".3" stop-color="#fcda11"/>
			<stop offset=".6" stop-color="#f47f20"/>
			<stop offset="1" stop-color="#a61d21"/>
		</linearGradient>
		<linearGradient id="g8" x1="182.1" y1="153" x2="182.1" y2="690" gradientUnits="userSpaceOnUse">
			<stop offset="0" stop-color="#ffffff"/>
			<stop offset=".3" stop-color="#fcda11"/>
			<stop offset=".6" stop-color="#f47f20"/>
			<stop offset="1" stop-color="#a61d21"/>
		</linearGradient>
		<linearGradient id="g9" x1="212.1" y1="152.9" x2="212.1" y2="690" gradientUnits="userSpaceOnUse">
			<stop offset="0" stop-color="#ffffff"/>
			<stop offset=".3" stop-color="#fcda11"/>
			<stop offset=".6" stop-color="#f47f20"/>
			<stop offset="1" stop-color="#a61d21"/>
		</linearGradient>
		<linearGradient id="g10" x1="285.2" y1="152.9" x2="285.2" y2="690" gradientUnits="userSpaceOnUse">
			<stop offset="0" stop-color="#ffffff"/>
			<stop offset=".3" stop-color="#fcda11"/>
			<stop offset=".6" stop-color="#f47f20"/>
			<stop offset="1" stop-color="#a61d21"/>
		</linearGradient>
		<linearGradient id="g11" x1="270.4" y1="486.4" x2="276" y2="407.3" gradientUnits="userSpaceOnUse">
			<stop offset="0" stop-color="#000000"/>
			<stop offset=".2" stop-color="#ffffff"/>
			<stop offset=".3" stop-color="#eaeaea"/>
			<stop offset=".4" stop-color="#5f5f5f"/>
			<stop offset=".5" stop-color="#636363"/>
			<stop offset=".6" stop-color="#8e8e8e"/>
			<stop offset=".7" stop-color="#7f7f7f"/>
			<stop offset=".8" stop-color="#0b0b0b"/>
			<stop offset="1" stop-color="#ffffff"/>
		</linearGradient>
		<linearGradient id="g12" x1="251.9" y1="348.5" x2="336.4" y2="348.5" gradientUnits="userSpaceOnUse">
			<stop offset="0" stop-color="#000000"/>
			<stop offset=".2" stop-color="#ffffff"/>
			<stop offset=".3" stop-color="#eaeaea"/>
			<stop offset=".4" stop-color="#5f5f5f"/>
			<stop offset=".5" stop-color="#636363"/>
			<stop offset=".6" stop-color="#8e8e8e"/>
			<stop offset=".7" stop-color="#7f7f7f"/>
			<stop offset="1" stop-color="#ffffff"/>
		</linearGradient>
		<linearGradient id="g13" x1="179.6" y1="657" x2="159.2" y2="642.6" gradientUnits="userSpaceOnUse">
			<stop offset="0" stop-color="#ffffff"/>
			<stop offset="1" stop-color="#000000"/>
		</linearGradient>
		<linearGradient id="g14" x1="269.3" y1="254.7" x2="317.5" y2="253.9" gradientUnits="userSpaceOnUse">
			<stop offset="0" stop-color="#dda44d"/>
			<stop offset=".2" stop-color="#ecbf69"/>
			<stop offset=".3" stop-color="#f8ec8c"/>
			<stop offset=".4" stop-color="#dda44d"/>
			<stop offset=".5" stop-color="#af7937"/>
			<stop offset=".6" stop-color="#ecbf69"/>
			<stop offset=".7" stop-color="#f8ec8c"/>
			<stop offset="1" stop-color="#dda44d"/>
		</linearGradient>
		<linearGradient id="g15" x1="292.6" y1="348.2" x2="292.6" y2="338" gradientUnits="userSpaceOnUse">
			<stop offset="0" stop-color="#dda44d"/>
			<stop offset=".1" stop-color="#af7937"/>
			<stop offset=".1" stop-color="#8c5723"/>
			<stop offset=".2" stop-color="#ecbf69"/>
			<stop offset=".3" stop-color="#f8ec8c"/>
			<stop offset=".4" stop-color="#dda44d"/>
			<stop offset=".5" stop-color="#af7937"/>
			<stop offset=".6" stop-color="#ecbf69"/>
			<stop offset=".7" stop-color="#f8ec8c"/>
			<stop offset=".8" stop-color="#a77b31"/>
			<stop offset="1" stop-color="#dda44d"/>
		</linearGradient>
		<linearGradient id="g16" x1="295.1" y1="484" x2="496.1" y2="484" gradientUnits="userSpaceOnUse">
			<stop offset="0" stop-color="#ffffff"/>
			<stop offset="1" stop-color="#006d3a"/>
		</linearGradient>
		<linearGradient id="g17" x1="294.8" y1="466" x2="489.8" y2="466" gradientUnits="userSpaceOnUse">
			<stop offset="0" stop-color="#ffffff"/>
			<stop offset="1" stop-color="#006d3a"/>
		</linearGradient>
		<linearGradient id="g18" x1="294.4" y1="443.3" x2="474.7" y2="443.3" gradientUnits="userSpaceOnUse">
			<stop offset="0" stop-color="#ffffff"/>
			<stop offset="1" stop-color="#006d3a"/>
		</linearGradient>
		<linearGradient id="g19" x1="294.1" y1="423.4" x2="461" y2="423.4" gradientUnits="userSpaceOnUse">
			<stop offset="0" stop-color="#ffffff"/>
			<stop offset="1" stop-color="#006d3a"/>
		</linearGradient>
		<linearGradient id="g20" x1="92.1" y1="484" x2="293.2" y2="484" gradientUnits="userSpaceOnUse">
			<stop offset="0" stop-color="#006d3a"/>
			<stop offset="1" stop-color="#ffffff"/>
		</linearGradient>
		<linearGradient id="g21" x1="98.5" y1="466" x2="293.4" y2="466" gradientUnits="userSpaceOnUse">
			<stop offset="0" stop-color="#006d3a"/>
			<stop offset="1" stop-color="#ffffff"/>
		</linearGradient>
		<linearGradient id="g22" x1="113.5" y1="443.3" x2="293.8" y2="443.3" gradientUnits="userSpaceOnUse">
			<stop offset="0" stop-color="#006d3a"/>
			<stop offset="1" stop-color="#ffffff"/>
		</linearGradient>
		<linearGradient id="g23" x1="127.3" y1="423.4" x2="294.1" y2="423.4" gradientUnits="userSpaceOnUse">
			<stop offset="0" stop-color="#006d3a"/>
			<stop offset="1" stop-color="#ffffff"/>
		</linearGradient>
	</defs>
	<style>
		tspan { white-space:pre } 
		.s0 { fill: url(#g1) } 
		.s1 { fill: url(#g2) } 
		.s2 { fill: url(#g3) } 
		.s3 { fill: url(#g4) } 
		.s4 { fill: url(#g5) } 
		.s5 { fill: url(#g6) } 
		.s6 { fill: url(#g7) } 
		.s7 { fill: url(#g8) } 
		.s8 { fill: url(#g9) } 
		.s9 { fill: url(#g10) } 
		.s10 { mix-blend-mode: multiply;fill: #000000 } 
		.s11 { fill: url(#g11);stroke: #231f20;stroke-width: .5 } 
		.s12 { fill: url(#g12);stroke: #231f20;stroke-width: .5 } 
		.s13 { fill: url(#g13);stroke: #231f20 } 
		.s14 { fill: url(#g14);stroke: #fefefe } 
		.s15 { fill: url(#g15);stroke: #fefefe;stroke-width: 2 } 
		.s16 { fill: url(#g16) } 
		.s17 { fill: #fefefe } 
		.s18 { fill: url(#g17) } 
		.s19 { fill: url(#g18) } 
		.s20 { fill: url(#g19) } 
		.s21 { fill: url(#g20) } 
		.s22 { fill: url(#g21) } 
		.s23 { fill: url(#g22) } 
		.s24 { fill: url(#g23) } 
		.s25 { fill: #fefefe;stroke: #231f20;stroke-width: .4 } 
		.t26 { font-size: 43px;fill: #f2f3f9;font-weight: 400;font-family: "LMRoman10-Regular", "LM Roman 10" } 
	</style>
	<g id="_Artboards_">
	</g>
	<g id="Layer 7">
		<g id="&lt;Group&gt;">
			<g id="&lt;Group&gt;">
				<g id="&lt;Group&gt;">
					<g id="&lt;Group&gt;">
						<path id="&lt;Path&gt;" class="s0" d="m294.1 488.4c32.6 0 59-26.5 59-59 0-32.6-26.4-59.1-59-59.1-32.6 0-59 26.5-59 59.1 0 32.5 26.4 59 59 59z"/>
					</g>
					<g id="&lt;Group&gt;">
						<path id="&lt;Path&gt;" class="s1" d="m294.1 485.6c31 0 56.2-25.2 56.2-56.2 0-31.1-25.2-56.3-56.2-56.3-31 0-56.2 25.2-56.2 56.3 0 31 25.2 56.2 56.2 56.2z"/>
					</g>
					<path id="&lt;Path&gt;" class="s2" d="m337.9 410.9c0 17.3-19.6 31.4-43.8 31.4-24.2 0-43.8-14.1-43.8-31.4 0-17.3 19.6-31.4 43.8-31.4 24.2 0 43.8 14.1 43.8 31.4z"/>
					<path id="&lt;Path&gt;" class="s3" d="m252.1 460.7c19.1 19.6 62.5 19.4 84.1-1.6-20.5 29.1-62.4 29.1-84.1 1.6z"/>
				</g>
				<g id="&lt;Group&gt;">
					<path id="&lt;Path&gt;" class="s4" d="m334.2 381c9.5-4.7 17.2-11.5 22-16 15.8-15 25-30 34.2-48.3 1.7-3.3 9.4-22.3 1.1-22.8-5.4-0.4-10.8 5.8-14.3 9.3-8.8 8.6-16.3 19-22.3 29.8-2.4 4.4-5.9 10.3-5.9 15.6 0.1 10.6 14.8-8.4 16.2-10.7 2.6-3.9 5-7.9 7.4-11.9-5.3 7.9-11.9 17.4-20.1 22.4 1.5-4.8 4.4-9.3 7.2-13.6 8.1-12.5 18.5-22.8 25.4-28.2-1.9 6.2-8.1 21.3-16.6 34.6-11.9 18.6-25.8 33.5-34.3 39.8z"/>
					<path id="&lt;Path&gt;" class="s5" d="m350.5 401.5c10.6-0.3 20.4-3.4 26.6-5.6 20.6-7.3 35.1-17.3 50.9-30.2 2.9-2.4 17.6-16.5 10.3-20.4-4.8-2.6-12.3 0.9-16.9 2.6-11.5 4.3-22.6 10.8-32.4 18.2-4.1 3.1-9.7 7-11.8 11.8-4.2 9.8 16.9-1.6 19.2-3.1 3.9-2.5 7.7-5.2 11.6-7.9-8.1 5.1-18 11.1-27.6 12.3 3.4-3.8 7.9-6.7 12.1-9.4 12.6-8.2 26.2-13.4 34.7-15.5-4.2 4.8-16 16.1-29.2 24.9-18.4 12.1-37.2 20.1-47.5 22.3z"/>
					<path id="&lt;Path&gt;" class="s6" d="m357 426.9c9.9 4 20.1 5.2 26.6 5.7 21.8 1.7 39.1-1.5 58.8-6.9 3.6-1 22.9-7.9 17.7-14.4-3.3-4.3-11.6-4.2-16.5-4.5-12.3-0.7-25 0.7-37 3.4-5 1.2-11.7 2.5-15.6 6.1-7.8 7.1 16.2 5.3 18.8 4.9 4.6-0.7 9.2-1.6 13.8-2.5-9.4 1.4-20.9 2.9-30.2 0 4.7-2.1 9.9-2.9 15-3.7 14.7-2.4 29.4-1.6 37.9 0-5.8 2.7-21.1 8.2-36.8 10.8-21.7 3.7-42.1 3.3-52.5 1.1z"/>
					<path id="&lt;Path&gt;" class="s7" d="m231.8 419.2c-8.8-6-18.6-9.2-24.9-11.1-20.9-6.2-38.5-6.7-58.9-5.5-3.7 0.2-24 3-20.3 10.5 2.4 4.8 10.5 6.4 15.2 7.7 11.9 3.3 24.6 4.6 37 4.4 5-0.1 11.9 0 16.4-2.7 9.2-5.4-14.7-8.5-17.3-8.7-4.7-0.3-9.4-0.3-14.1-0.4 9.5 0.6 21.1 1.5 29.6 6.2-5 1.1-10.3 0.8-15.4 0.6-14.9-0.8-29.1-4.6-37.1-7.9 6.2-1.4 22.3-3.7 38.2-3 22 1 41.9 5.6 51.6 9.9z"/>
					<path id="&lt;Path&gt;" class="s8" d="m241.4 394.8c-5.6-9-13.2-16-18.2-20.3-16.6-14.2-32.5-21.7-51.5-28.9-3.6-1.4-23.2-7.1-22.9 1.2 0.2 5.5 7 10.2 10.8 13.3 9.5 7.9 20.6 14.2 31.9 19 4.7 2 10.9 4.9 16.1 4.3 10.6-1.2-9.9-13.8-12.2-15-4.2-2.2-8.5-4.1-12.7-6.1 8.5 4.4 18.6 10 24.5 17.7-5.1-1.1-9.8-3.5-14.3-5.8-13.4-6.7-24.7-16-30.7-22.3 6.3 1.3 21.9 5.8 36.1 12.9 19.7 9.8 36 22.1 43.1 30z"/>
					<path id="&lt;Path&gt;" class="s9" d="m260.1 376.4c-1.4-10.5-5.5-20-8.4-25.9-9.3-19.7-20.8-33.1-35.3-47.4-2.7-2.7-18.3-15.9-21.4-8.2-2 5.1 2.3 12.1 4.5 16.6 5.4 11 13 21.3 21.4 30.3 3.5 3.7 8 8.9 13 10.5 10.1 3.2-3.4-16.7-5.1-18.7-2.9-3.7-6-7.2-9.1-10.8 5.9 7.5 13 16.7 15.2 26.1-4.2-3-7.5-7.1-10.7-11-9.5-11.6-16.1-24.7-19-32.9 5.2 3.7 17.7 14.2 27.8 26.5 14 17 23.8 34.9 27.1 44.9z"/>
				</g>
			</g>
			<g id="&lt;Group&gt;">
				<g id="&lt;Group&gt;">
					<g id="&lt;Group&gt;">
						<g id="&lt;Group&gt;">
							<path id="&lt;Path&gt;" class="s10" d="m272 482.7h44.6v-3.3h-44.6z"/>
							<g id="&lt;Group&gt;">
								<path id="&lt;Path&gt;" class="s11" d="m360.3 483.5l0.2-21-36.6-49.3h-59.5l-36.6 49.3v21z"/>
								<g id="&lt;Group&gt;">
									<path id="&lt;Path&gt;" class="s12" d="m324 392.5l-16.5-44h-26.7l-16.4 44-12.5 91.2 28.9 8.2h26.7l28.9-8.2z"/>
								</g>
								<path id="&lt;Path&gt;" class="s13" d="m294 491.6q0.7 0 1.3 0.2v-40.3h-2.3v40.2q0.5-0.1 1-0.1z"/>
							</g>
						</g>
					</g>
					<g id="&lt;Group&gt;">
						<path id="&lt;Path&gt;" class="s14" d="m317.5 301.5l-8.8 36.4-14.5 0.1h-14.5l-9-36.4 21.9-42.3c-0.4-0.3-0.7-0.9-0.8-1.6 0-1.1 0.8-2 1.8-2.2l0.1 34.9c-3.2 0.2-5.7 2.9-5.7 6.1 0 3.4 2.8 6.1 6.1 6.1 3.4 0 6.1-2.8 6.1-6.1 0-3.3-2.6-5.9-5.8-6.1l-0.1-34.9c1 0.2 1.8 1 1.9 2.1 0 0.7-0.3 1.3-0.8 1.7z"/>
						<path id="&lt;Path&gt;" class="s15" d="m277.4 348.2v-1.6-8.6h33.4v10.2z"/>
					</g>
				</g>
				<g id="&lt;Group&gt;">
					<g id="&lt;Group&gt;">
						<path id="&lt;Path&gt;" class="s16" d="m496.1 521.7c0 0-47.3-12.6-99.4-16.3-45-3.1-101.6 15.1-101.6 15.1 0 0 15-14.7 31.1-20.7 16.2-6 28.6-11.5 70.9-14.9 55.3-4.5 83.5 9.1 83.5 9.1z"/>
						<path id="&lt;Path&gt;" class="s17" d="m443 485.8l8.8 17.6c0 0-20.5-4.8-55.3-3.6-34.8 1.2-101.5 19.3-101.5 19.3 0 0 48.5-29.4 81.4-33.3 32.9-4 66-1.5 66.6 0z"/>
						<path id="&lt;Path&gt;" class="s18" d="m489.8 483.4c0 0-59.6-1.3-100.9 4.5-44.7 6.2-94.1 31.6-94.1 31.6 0 0 5-5.2 23.3-17 14.5-9.3 28.9-19.1 70.1-29.3 50.1-12.4 89-5 89-5z"/>
						<path id="&lt;Path&gt;" class="s17" d="m430.7 467.3c0 0 5.4 9.4 4.7 9.9-0.8 0.5-24 0.6-58.2 9.3-34.2 8.7-80.3 30.2-80.3 30.2 0 0 15.4-17.2 39.3-27.7 23.9-10.4 70.8-21.6 94.5-21.7z"/>
						<path id="&lt;Path&gt;" class="s19" d="m474.7 446.5c0 0-41.3 7.3-93.6 27.1-41.3 15.6-86.7 45.3-86.7 45.3 0 0 2.5-3.1 15.4-13.8 13-10.7 28.5-21.7 67-37 50-19.9 93.9-24.8 93.9-24.8z"/>
						<path id="&lt;Path&gt;" class="s20" d="m461 425.2c0 0-38.4 15.4-86.6 42.3-38.6 21.5-80.3 50.8-80.3 50.8 0 0 2.5-2.9 15.5-13.6 13-10.6 25.3-20.2 61.4-40.5 51.7-29.1 88.3-40.8 88.3-40.8z"/>
					</g>
					<g id="&lt;Group&gt;">
						<path id="&lt;Path&gt;" class="s21" d="m92.1 521.7c0 0 47.4-12.6 99.5-16.3 44.9-3.1 101.6 15.1 101.6 15.1 0 0-15-14.7-31.2-20.7-16.2-6-28.6-11.5-70.8-14.9-55.4-4.5-83.5 9.1-83.5 9.1z"/>
						<path id="&lt;Path&gt;" class="s17" d="m145.3 485.8l-8.8 17.6c0 0 20.4-4.8 55.3-3.6 34.8 1.2 101.4 19.3 101.4 19.3 0 0-48.5-29.4-81.4-33.3-32.9-4-65.9-1.5-66.5 0z"/>
						<path id="&lt;Path&gt;" class="s22" d="m98.5 483.4c0 0 59.6-1.3 100.9 4.5 44.6 6.2 94 31.6 94 31.6 0 0-4.9-5.2-23.3-17-14.5-9.3-28.9-19.1-70-29.3-50.2-12.4-89.1-5-89.1-5z"/>
						<path id="&lt;Path&gt;" class="s17" d="m157.6 467.3c0 0-5.5 9.4-4.7 9.9 0.7 0.5 23.9 0.6 58.1 9.3 34.3 8.7 80.3 30.2 80.3 30.2 0 0-15.3-17.2-39.3-27.7-23.9-10.4-70.7-21.6-94.4-21.7z"/>
						<path id="&lt;Path&gt;" class="s23" d="m113.5 446.5c0 0 41.4 7.3 93.6 27.1 41.3 15.6 86.7 45.3 86.7 45.3 0 0-2.4-3.1-15.4-13.8-13-10.7-28.5-21.7-67-37-50-19.9-93.9-24.8-93.9-24.8z"/>
						<path id="&lt;Path&gt;" class="s24" d="m127.3 425.2c0 0 38.4 15.4 86.6 42.3 38.6 21.5 80.2 50.8 80.2 50.8 0 0-2.5-2.9-15.5-13.6-12.9-10.6-25.3-20.2-61.3-40.5-51.8-29.1-88.4-40.8-88.4-40.8z"/>
					</g>
				</g>
				<g id="&lt;Group&gt;">
					<path id="&lt;Path&gt;" class="s25" d="m325.1 424.4c-11.7-0.2-21.3 3.3-28.6 9.8 1.1 0.7 1.9 1.4 3 2.3 0.5-0.8 2.8-3.4 4.5-1.2-1.1 0.3-2.7 1.4-2.9 2.3 0.8 0.9 1.6 1.5 2.7 1.9 0.5-0.7 1.2-1 2.3-0.9 1 0.2 1.7 0.7 1.8 1.9 0.1 1.5-1.2 2.2-3 2.4-2.3-0.1-4.4-1.2-6.2-3.2-0.6 0.7-2.8 3-4.4 0.5 1.1 0 2.2-0.6 2.7-1.5-0.9-0.9-2-1.6-3.1-2.4-1.1 0.7-1.9 1.4-2.9 2.3 0.5 0.8 1.5 1.5 2.8 1.5-1.1 2.3-3.2 1-4.2-0.3-2.3 1.6-4.8 3.5-7.3 3.1-1.6-0.3-2.2-1.4-2.2-2.5 0.2-1.3 1.1-1.7 2-1.8 0.8 0 1.5 0.4 1.9 1 1.1-0.4 2.2-1.1 3.1-2.1-0.4-0.7-1.7-1.7-2.6-1.8 1.2-2.5 3.4-0.2 4 0.6 1.1-0.8 2-1.6 2.6-2.1-7.8-6.2-16.1-10.2-28-9.6 10.4-3.8 21.7 0.9 30.7 7.9 8.6-7.3 19.5-11.5 31.3-8.1z"/>
					<path id="&lt;Path&gt;" class="s25" d="m293.5 395.5c-0.7 0.4-0.9 1.1-1 1.7-1.5-1.9-4.4-1-5.2 1.3 0.6-0.5 1.4-0.5 1.9-0.2-2.7 0.4-4.3 1.4-4.5 4.4 1.3-1.6 2.2-2.4 3-2.2-2.7 1.8-3.4 4-3.1 6.8 0.4-1.6 1.6-2.9 2.3-2.7-0.6 1.7-0.4 3.4 0.5 5 0.2-1.6 1.1-3.6 2.2-5-0.6 2.2-0.3 4.4 1.2 6.5-0.5-2.1 0.4-3.9 1.7-4 0.1 0.4 0 0.6 0 0.9-0.1 0.1-0.5 0.1-0.6 0.1 0.1 1.1 0.3 2 0.6 3-0.2 0-0.6 0-0.7 0 0.1 1 0.5 1.8 0.8 2.3-0.2 0-0.7 0-0.9 0 0 0.9 0.5 1.8 0.8 2.4-0.1 0-0.6 0-0.7-0.1 0.1 1 0.4 1.6 0.8 2.3-0.2 0-0.7 0.1-0.8 0.1 0.1 0.9 0.4 1.6 0.8 2.2-0.2 0.1-0.7 0.1-0.8 0.1 0 0.8 0.4 1.8 0.8 2.3-0.2 0-0.7 0-0.8 0 0.1 0.9 0.3 2 0.7 2.8-0.1 0-0.5 0-0.7 0 0 0.6 0.2 1 0.5 1.3-0.6 0.6-0.8 1.3-1 2.3 1.6 0 3.3 0.1 4.9 0.1-0.2-1-0.6-1.9-1.1-2.3 0.2-0.3 0.5-0.6 0.5-1.4-0.1 0-0.6 0-0.7 0 0.4-0.8 0.7-2 0.7-2.8-0.1 0-0.6 0-0.8 0 0.4-0.6 0.7-1.4 0.8-2.3-0.1 0-0.6 0-0.7 0 0.3-0.6 0.7-1.5 0.7-2.4-0.1 0-0.6 0.1-0.8 0.1 0.4-0.7 0.8-1.5 0.8-2.4-0.1 0-0.7 0-0.8 0 0.4-0.6 0.8-1.4 0.9-2.3-0.2 0-0.7 0-0.8 0 0.2-0.6 0.6-1.5 0.7-2.3-0.1 0-0.6 0-0.8 0 0.3-0.9 0.7-2.1 0.7-3-0.2 0-0.5 0-0.7 0 0-0.4 0-0.6 0-1 1.4 0.5 1.9 2 1.4 4 1.9-2 2.1-4.3 1.6-6.4 1 1.2 1.7 2.5 1.9 4.8 0.9-1.6 1.2-3.2 0.6-4.9 1 0.5 1.7 1.4 2.2 2.8 0.2-2.5-0.2-5-2.8-6.9 1 0.2 1.9 0.8 2.7 1.5-0.5-2.2-2-3.6-4.6-3.7 0.3-0.4 1.2-0.5 1.9-0.2-0.8-1.9-3.9-2.9-5.2-0.9 0-0.6-0.3-1.3-1-1.7z"/>
				</g>
			</g>
			<text id="Dashin Academy" style="mix-blend-mode: overlay;transform: matrix(1,0,0,1,297.12,573.497)" >
				<tspan x="-158.7" y="0" class="t26">D</tspan><tspan  y="0" class="t26">a</tspan><tspan  y="0" class="t26">s</tspan><tspan  y="0" class="t26">h</tspan><tspan  y="0" class="t26">i</tspan><tspan  y="0" class="t26">n</tspan><tspan  y="0" class="t26"> </tspan><tspan  y="0" class="t26">A</tspan><tspan  y="0" class="t26">c</tspan><tspan  y="0" class="t26">a</tspan><tspan  y="0" class="t26">d</tspan><tspan  y="0" class="t26">e</tspan><tspan  y="0" class="t26">m</tspan><tspan  y="0" class="t26">y
</tspan>
			</text>
			<text id="" style="transform: matrix(1,0,0,1,294.12,584.044)" >
			</text>
		</g>
	</g>
</svg>